<?xml version="1.0" encoding="utf-8"?>
<!-- Generator: Adobe Illustrator 24.1.2, SVG Export Plug-In . SVG Version: 6.00 Build 0)  -->
<svg version="1.1" id="Layer_1" xmlns="http://www.w3.org/2000/svg" xmlns:xlink="http://www.w3.org/1999/xlink" x="0px" y="0px"
	 viewBox="0 0 24 24" style="enable-background:new 0 0 24 24;" xml:space="preserve">
<style type="text/css">
	.st0{fill:none;}
	.st1{fill:#333534;stroke:url(#SVGID_1_);stroke-miterlimit:10;}
</style>
<path class="st0" d="M0,0h24v24H0V0z"/>
<linearGradient id="SVGID_1_" gradientUnits="userSpaceOnUse" x1="0.5" y1="11.1499" x2="23.5" y2="11.1499">
	<stop  offset="0" style="stop-color:#78FFD6"/>
	<stop  offset="1" style="stop-color:#A8FF78"/>
</linearGradient>
<path class="st1" d="M19,1l-5,5v11l5-4.5V1z M1,6v14.6c0,0.2,0.2,0.5,0.5,0.5c0.1,0,0.1,0,0.2,0C3.1,20.4,5.1,20,6.5,20
	c1.9,0,4.1,0.4,5.5,1.5V6c-1.4-1.1-3.6-1.5-5.5-1.5S2.5,4.9,1,6z M23,19.5V6c-0.6-0.4-1.2-0.8-2-1v13.5c-1.1-0.4-2.3-0.5-3.5-0.5
	c-1.7,0-4.1,0.6-5.5,1.5v2c1.4-0.9,3.8-1.5,5.5-1.5c1.6,0,3.4,0.3,4.8,1c0.1,0,0.1,0,0.2,0c0.2,0,0.5-0.2,0.5-0.5
	C23,20.6,23,19.5,23,19.5z"/>
</svg>
