<?xml version="1.0" encoding="utf-8"?>
<!-- Generator: Adobe Illustrator 24.1.2, SVG Export Plug-In . SVG Version: 6.00 Build 0)  -->
<svg version="1.1" id="Layer_1" xmlns="http://www.w3.org/2000/svg" xmlns:xlink="http://www.w3.org/1999/xlink" x="0px" y="0px"
	 viewBox="0 0 24 24" style="enable-background:new 0 0 24 24;" xml:space="preserve">
<style type="text/css">
	.st0{fill:none;}
	.st1{fill-rule:evenodd;clip-rule:evenodd;fill:#333534;stroke:url(#SVGID_1_);stroke-miterlimit:10;}
	.st2{fill-rule:evenodd;clip-rule:evenodd;fill:#333534;stroke:url(#SVGID_2_);stroke-miterlimit:10;}
	.st3{fill-rule:evenodd;clip-rule:evenodd;fill:#333534;stroke:url(#SVGID_3_);stroke-miterlimit:10;}
	.st4{fill-rule:evenodd;clip-rule:evenodd;fill:#333534;stroke:url(#SVGID_4_);stroke-miterlimit:10;}
</style>
<g>
	<rect y="0" class="st0" width="24" height="24"/>
</g>
<g>
	<g>
		<g>
			<linearGradient id="SVGID_1_" gradientUnits="userSpaceOnUse" x1="14.5918" y1="16.4118" x2="23.5" y2="16.4118">
				<stop  offset="0" style="stop-color:#78FFD6"/>
				<stop  offset="1" style="stop-color:#A8FF78"/>
			</linearGradient>
			<path class="st1" d="M16.7,13.1C18,14.1,19,15.3,19,17v3h4v-3C23,14.8,19.4,13.5,16.7,13.1z"/>
		</g>
		<g>
			<linearGradient id="SVGID_2_" gradientUnits="userSpaceOnUse" x1="4.5" y1="8" x2="13.5" y2="8">
				<stop  offset="0" style="stop-color:#78FFD6"/>
				<stop  offset="1" style="stop-color:#A8FF78"/>
			</linearGradient>
			<circle class="st2" cx="9" cy="8" r="4"/>
		</g>
		<g>
			<linearGradient id="SVGID_3_" gradientUnits="userSpaceOnUse" x1="12.829" y1="8" x2="19.5" y2="8">
				<stop  offset="0" style="stop-color:#78FFD6"/>
				<stop  offset="1" style="stop-color:#A8FF78"/>
			</linearGradient>
			<path class="st3" d="M15,12c2.2,0,4-1.8,4-4s-1.8-4-4-4c-0.5,0-0.9,0.1-1.3,0.2C14.5,5.3,15,6.6,15,8s-0.5,2.7-1.3,3.8
				C14.1,11.9,14.5,12,15,12z"/>
		</g>
		<g>
			<linearGradient id="SVGID_4_" gradientUnits="userSpaceOnUse" x1="0.5" y1="16.5" x2="17.5" y2="16.5">
				<stop  offset="0" style="stop-color:#78FFD6"/>
				<stop  offset="1" style="stop-color:#A8FF78"/>
			</linearGradient>
			<path class="st4" d="M9,13c-2.7,0-8,1.3-8,4v3h16v-3C17,14.3,11.7,13,9,13z"/>
		</g>
	</g>
</g>
</svg>
