<?xml version="1.0" encoding="utf-8"?>
<!-- Generator: Adobe Illustrator 24.1.2, SVG Export Plug-In . SVG Version: 6.00 Build 0)  -->
<svg version="1.1" id="Layer_1" xmlns="http://www.w3.org/2000/svg" xmlns:xlink="http://www.w3.org/1999/xlink" x="0px" y="0px"
	 viewBox="0 0 24 24" style="enable-background:new 0 0 24 24;" xml:space="preserve">
<style type="text/css">
	.st0{fill:none;}
	.st1{fill:#323534;}
</style>
<path class="st0" d="M0,0h24v24H0V0z"/>
<path class="st1" d="M13.1,5.7l-0.6,2.9c-0.1,0.6,0,1.2,0.4,1.7s0.9,0.7,1.5,0.7H20v1.1L17.4,18H9.3C9.2,18,9,17.8,9,17.7V9.8
	L13.1,5.7 M14,2L7.6,8.4C7.2,8.8,7,9.3,7,9.8v7.8C7,19,8.1,20,9.3,20h8.1c0.7,0,1.4-0.4,1.7-1l2.7-6.1c0.1-0.2,0.2-0.5,0.2-0.8V11
	c0-1.1-0.9-2-2-2h-5.5l0.9-4.7c0.1-0.2,0-0.5-0.1-0.7c-0.2-0.5-0.5-0.9-0.9-1.2L14,2z M4,9H2v11h2c0.6,0,1-0.5,1-1v-9
	C5,9.4,4.6,9,4,9z"/>
</svg>
