<?xml version="1.0" encoding="utf-8"?>
<!-- Generator: Adobe Illustrator 24.1.2, SVG Export Plug-In . SVG Version: 6.00 Build 0)  -->
<svg version="1.1" id="Layer_1" xmlns="http://www.w3.org/2000/svg" xmlns:xlink="http://www.w3.org/1999/xlink" x="0px" y="0px"
	 viewBox="0 0 24 24" style="enable-background:new 0 0 24 24;" xml:space="preserve">
<style type="text/css">
	.st0{fill:none;}
	.st1{fill:#323534;}
</style>
<path class="st0" d="M24,24H0V0h24V24z"/>
<path class="st1" d="M10.9,18.3l0.6-2.9c0.1-0.6,0-1.2-0.4-1.7s-1-0.7-1.6-0.7H4v-1.1L6.6,6h8.1C14.8,6,15,6.2,15,6.3v7.8L10.9,18.3
	 M10,22l6.4-6.4c0.4-0.4,0.6-0.9,0.6-1.4V6.3C17,5.1,15.9,4,14.7,4H6.6C5.8,4,5.2,4.4,4.8,5l-2.7,6.2c0,0.2-0.1,0.4-0.1,0.7V13
	c0,1.1,0.9,2,2,2h5.5l-0.9,4.6c-0.1,0.2,0,0.5,0.1,0.7c0.2,0.5,0.5,0.9,0.9,1.2L10,22z M20,15h2V4h-2c-0.5,0-1,0.4-1,1v9
	C19,14.6,19.5,15,20,15z"/>
</svg>
